# xmcd CD database file
#
# Track frame offsets:
#	150
#	14740
#	28187
#	45473
#	59582
#	76745
#	93098
#	115002
#	131059
#
# Disc length: 1928 seconds
#
# Revision: 0
# Processed by: cddbd v1.5.1PL2 Copyright (c) Steve Scherf et al.
# Submitted via: CDex 1.60beta1
#
DISCID=6e078609
DTITLE=Groove Party - Gypsy Jazz
DYEAR=2006
DGENRE=Jazz
TTITLE0=Exactly like you (Jimmy McHugh)
TTITLE1=Honeysuckle Rouse (Fast Waller)
TTITLE2=Cute (Neal Waller - Stanley Styne)
TTITLE3=LimeHouse Blues (Philip Braham)
TTITLE4=I'm Confession (Dan Dougherty)
TTITLE5=After You've Gone (Creamer - layton)
TTITLE6=Just One Of Those Things (Cole Porter)
TTITLE7=How Insensitive (A/C/ Jobim - Norman Gimble)
TTITLE8=Undecided (Ch. Shaveкs)
EXTD=YEAR: 2006
EXTT0=
EXTT1=
EXTT2=
EXTT3=
EXTT4=
EXTT5=
EXTT6=
EXTT7=
EXTT8=
PLAYORDER=
